# xmcd
# Track frame offsets:
# 150
# 9670
# 20391
# 28785
# 39957
# 50453
# 62673
# 74815
# 87562
# 98281
# 110952
# 120843
# 131488
# 143334
# 157131
#
# Disc length: 2273 seconds
# Revision: 0
# Processed by: cddbd v1.5.2PL0 Copyright (c) Steve Scherf et al.
# Submitted via: VisiTrax 2.11.2.271 - For more info visit www.synapsa.com
#
DISCID=c508df0f
DTITLE=Various Artist - Classic Country 1960-1964 Disc 1
DYEAR=1997
DGENRE=Country
TTITLE0=George Jones - The Race Is On
TTITLE1=Hank Locklin - Please Help Me, I'm Falling
TTITLE2=Roger Miller - Dang Me
TTITLE3=Floyd Cramer - Last Date
TTITLE4=Ferlin Husky - The Wings Of A Dove
TTITLE5=Patsy Cline - Crazy
TTITLE6=Brenda Lee - I'm Sorry
TTITLE7=Johnny Horton - North To Alaska
TTITLE8=Jim Reeves - He'll Have To Go
TTITLE9=Bill Anderson - Still
TTITLE10=Ned Miller - From A Jack To A King
TTITLE11=Leroy Van Dyke - Walk On By
TTITLE12=Johnny Cash - Understand Your Man
TTITLE13=Lefty Frizzell - Saginaw, Michigan
TTITLE14=Claude King - Wolverton Mountain
EXTD=ID3G:   2
EXTT0=
EXTT1=
EXTT2=
EXTT3=
EXTT4=
EXTT5=
EXTT6=
EXTT7=
EXTT8=
EXTT9=
EXTT10=
EXTT11=
EXTT12=
EXTT13=
EXTT14=
PLAYORDER=
